<svg version="1.1" id="Layer_1" xmlns="http://www.w3.org/2000/svg" xmlns:xlink="http://www.w3.org/1999/xlink" x="0px" y="0px"
	 width="100%" viewBox="0 0 2000 1500" enable-background="new 0 0 2000 1500" xml:space="preserve">
<path fill="#FE012F" opacity="1.000000" stroke="none" 
	d="
M1374.000000,1501.000000 
	C917.500122,1501.000000 461.500275,1500.994629 5.500428,1501.092773 
	C1.752303,1501.093628 0.906343,1500.250366 0.907081,1496.500366 
	C1.004936,999.500549 1.004924,502.500702 0.907307,5.500873 
	C0.906571,1.753928 1.748022,0.906577 5.499156,0.907123 
	C669.165588,1.003712 1332.832031,1.003690 1996.498535,0.907544 
	C2000.244019,0.907001 2001.093872,1.745894 2001.093140,5.498565 
	C2000.995117,502.498383 2000.994995,999.498230 2001.092529,1496.498047 
	C2001.093262,1500.242310 2000.256104,1501.095825 1996.501953,1501.093994 
	C1789.167969,1500.988159 1581.833984,1501.000000 1374.000000,1501.000000 
z"/>
<path fill="#E9A9FC" opacity="1.000000" stroke="none" 
	d="
M635.999878,1149.811523 
	C523.836121,1149.811523 412.172333,1149.774780 300.508850,1149.933105 
	C295.552582,1149.940186 294.577057,1148.543823 294.579163,1143.849731 
	C294.695435,881.689941 294.697052,619.530151 294.571747,357.370422 
	C294.569397,352.424072 295.641632,351.059326 300.788483,351.062134 
	C562.781555,351.206085 824.774658,351.201324 1086.767822,351.089905 
	C1091.533203,351.087860 1093.197510,351.851685 1093.178345,357.194122 
	C1092.953369,419.858337 1092.994507,482.523743 1093.123169,545.188477 
	C1093.131714,549.368164 1092.431641,551.115417 1087.755493,550.822815 
	C1080.616943,550.376160 1073.418945,550.467712 1066.267700,550.797363 
	C1062.157227,550.986877 1060.944092,549.804688 1060.961426,545.598328 
	C1061.121338,506.766663 1061.055664,467.934052 1061.055542,429.101746 
	C1061.055420,415.268768 1060.952515,401.434479 1061.128418,387.603760 
	C1061.171753,384.199371 1060.344116,382.830750 1056.733032,383.085022 
	C1052.421143,383.388641 1048.071655,383.156097 1043.738403,383.156097 
	C807.077942,383.156067 570.417480,383.152435 333.757050,383.171814 
	C325.827209,383.172485 326.641235,381.992767 326.640686,390.400085 
	C326.625244,630.560486 326.626007,870.720825 326.637695,1110.881226 
	C326.638092,1118.923218 325.965424,1117.829590 333.538269,1117.830078 
	C573.865295,1117.846924 814.192383,1117.847656 1054.519409,1117.826416 
	C1062.007812,1117.825806 1061.034546,1118.888794 1061.039307,1111.116089 
	C1061.070679,1059.450806 1061.133911,1007.785156 1060.930298,956.120605 
	C1060.910767,951.138306 1062.333008,949.901123 1067.050903,950.190918 
	C1073.692383,950.598877 1080.396240,950.597961 1087.037720,950.190857 
	C1091.732666,949.903137 1093.178345,951.092773 1093.160400,956.092957 
	C1092.960083,1011.924133 1093.034180,1067.756226 1093.034058,1123.588135 
	C1093.034058,1131.087891 1092.935547,1138.589722 1093.084351,1146.086548 
	C1093.138672,1148.816284 1092.432373,1150.171753 1089.483276,1149.838135 
	C1088.002319,1149.670654 1086.486694,1149.811523 1084.986694,1149.811523 
	C935.491089,1149.811523 785.995544,1149.811523 635.999878,1149.811523 
z"/>
<path fill="#E9AAFD" opacity="1.000000" stroke="none" 
	d="
M1005.941833,683.947632 
	C983.800354,708.773499 957.688171,728.320862 930.890381,747.065125 
	C907.699524,763.286316 883.679016,778.347839 861.780029,796.377991 
	C858.480408,799.094604 855.274597,801.925232 851.381287,805.253784 
	C863.661377,808.776855 875.125610,811.909180 886.494263,815.357056 
	C919.594482,825.395874 952.370483,836.508911 985.800598,845.453125 
	C1013.979248,852.992432 1042.449341,859.005859 1071.637573,860.953979 
	C1074.114624,861.119263 1075.019653,861.753174 1075.104980,864.422424 
	C1075.599243,879.890381 1065.063965,889.400208 1050.083008,885.444885 
	C988.116943,869.084167 924.814941,858.702393 862.673828,843.163818 
	C856.702881,841.670776 850.702393,840.264771 844.809570,838.503723 
	C841.689331,837.571289 841.070923,838.409302 841.271729,841.423706 
	C842.068665,853.391052 842.817566,865.364868 843.321167,877.347412 
	C843.806641,888.899475 843.006104,900.366943 838.621216,911.231567 
	C833.121338,924.858948 822.936218,929.922852 808.597107,926.756714 
	C804.939880,925.949280 803.526001,924.509338 803.573486,920.473755 
	C803.859985,896.148926 803.828857,871.820251 803.879822,847.492859 
	C803.942627,817.500122 803.712097,787.503906 804.100037,757.515564 
	C804.575256,720.786133 801.500671,684.307861 797.688293,647.839233 
	C795.609131,627.950562 794.738342,607.964355 795.023315,587.957275 
	C795.181396,576.860718 808.365356,568.927612 818.305359,573.686462 
	C820.053772,574.523560 819.897644,576.052063 820.221191,577.447693 
	C825.277405,599.255310 827.591370,621.431702 828.977966,643.719604 
	C831.532532,684.781616 833.720459,725.869690 838.097473,766.796143 
	C838.667480,772.126160 838.869507,772.283936 843.591736,769.246582 
	C868.394409,753.293335 891.953308,735.553284 916.104065,718.662964 
	C937.382996,703.781006 958.212097,688.216553 981.077026,675.742249 
	C984.575012,673.833923 988.206055,672.155090 991.845886,670.527588 
	C993.498901,669.788513 995.291382,669.237549 997.077026,668.942200 
	C1002.510132,668.043579 1007.228271,670.547424 1009.930115,675.540100 
	C1012.314026,679.945129 1007.266968,680.891357 1005.941833,683.947632 
z"/>
<path fill="#E9AAFD" opacity="1.000000" stroke="none" 
	d="
M1099.084473,813.009277 
	C1097.522949,767.879150 1095.812744,723.251221 1094.497070,678.611755 
	C1093.878174,657.610046 1094.844727,636.633484 1097.880005,615.795410 
	C1098.828491,609.283325 1103.946533,604.385803 1110.575928,603.835632 
	C1124.039185,602.718323 1136.317261,614.263855 1136.121582,628.005188 
	C1135.663574,660.162842 1133.380371,692.283203 1134.053833,724.463196 
	C1134.381592,740.121460 1135.221924,755.747314 1138.020142,771.192871 
	C1139.909546,771.733154 1140.914795,770.348206 1142.059570,769.609436 
	C1177.010010,747.054565 1215.061401,739.054565 1256.138916,745.225952 
	C1257.767700,745.470642 1259.494751,745.772949 1260.923340,746.527161 
	C1273.636719,753.239197 1285.629395,760.961426 1295.911987,771.175293 
	C1307.808594,782.992554 1312.688599,797.705322 1313.899536,813.927551 
	C1315.759644,838.846558 1316.467285,863.845764 1318.995483,888.718506 
	C1319.871094,897.331848 1320.732178,905.959106 1322.055298,914.509521 
	C1322.737671,918.918518 1321.167847,921.722229 1317.487061,923.379517 
	C1308.314331,927.509583 1298.786499,928.115906 1289.277100,924.842346 
	C1283.590698,922.884949 1282.026733,918.013367 1282.044189,912.397278 
	C1282.106445,892.397339 1281.989990,872.397949 1280.954712,852.419128 
	C1280.161133,837.104065 1278.782104,821.854675 1275.103882,806.905945 
	C1274.147705,803.019958 1272.838257,799.266846 1271.181274,795.614014 
	C1268.358032,789.390747 1263.993652,785.898010 1256.898315,784.748108 
	C1239.951050,782.001526 1223.053223,779.140503 1205.825195,778.980896 
	C1182.377930,778.763733 1165.826904,789.399719 1155.870972,810.551819 
	C1148.044189,827.180725 1144.728882,845.000549 1142.032959,862.962952 
	C1139.337036,880.927307 1137.620361,899.004272 1136.716064,917.146606 
	C1136.532227,920.834290 1135.386963,922.212280 1131.431152,922.069702 
	C1122.276611,921.739685 1113.093384,921.730469 1103.939575,922.069885 
	C1099.759399,922.224915 1099.027222,920.756958 1099.191284,916.973938 
	C1100.686523,882.486816 1100.255127,847.995117 1099.084473,813.009277 
z"/>
<path fill="#E9AAFC" opacity="1.000000" stroke="none" 
	d="
M757.434143,757.532532 
	C761.468750,779.659180 762.095032,801.638916 762.865173,823.604492 
	C763.775269,849.563110 763.701050,875.576538 766.963623,901.404419 
	C767.712952,907.335938 768.914978,913.219971 770.143433,919.076599 
	C770.656616,921.523315 770.120728,922.395569 767.587158,922.365051 
	C760.258789,922.276794 752.925720,922.210938 745.600769,922.391418 
	C742.521912,922.467224 742.189941,920.868713 741.913635,918.428345 
	C740.003479,901.559570 738.080627,884.690552 735.919739,867.852722 
	C735.001038,860.693481 734.025574,853.499634 731.722229,845.852356 
	C726.030945,854.100708 720.685852,861.708679 714.456543,868.625244 
	C684.101501,902.329590 646.543762,919.596558 600.883423,918.498047 
	C589.535645,918.225037 578.203735,917.862488 567.392822,913.976379 
	C555.554871,909.721130 545.271362,903.375977 541.584229,890.387756 
	C540.009277,884.839844 539.617859,878.924011 538.999878,873.142090 
	C536.715332,851.768616 541.640442,831.587036 551.118652,812.770081 
	C576.489136,762.402771 615.333191,727.278564 669.873108,710.711914 
	C688.139954,705.163269 706.762024,705.926331 725.282349,709.114380 
	C735.485718,710.870789 742.312927,717.708069 747.326721,726.438904 
	C752.795471,735.961853 755.364258,746.443054 757.434143,757.532532 
z"/>
<path fill="#E9AAFC" opacity="1.000000" stroke="none" 
	d="
M1428.598877,896.861328 
	C1427.051758,847.602844 1425.646118,798.824585 1423.952881,750.056213 
	C1422.872559,718.936890 1421.635864,687.817627 1419.922974,656.728333 
	C1419.200317,643.613403 1416.002930,630.755127 1413.362305,617.883911 
	C1412.704468,614.677979 1412.999878,612.128723 1415.282837,609.654175 
	C1417.419922,607.337708 1419.097412,604.603943 1421.149292,602.200684 
	C1427.937744,594.249573 1435.985107,595.236572 1440.119629,604.707642 
	C1445.838745,617.808472 1448.000854,631.853455 1449.857788,645.851196 
	C1461.160889,731.056213 1462.977661,816.788574 1463.656372,902.570679 
	C1463.753052,914.783264 1458.335693,921.253174 1446.429565,924.250916 
	C1441.887573,925.394470 1437.258179,925.835693 1432.574829,925.777039 
	C1429.930420,925.743896 1428.852173,924.669128 1428.880005,921.826904 
	C1428.960083,913.668152 1428.728149,905.506287 1428.598877,896.861328 
z"/>
<path fill="#E9A9FB" opacity="1.000000" stroke="none" 
	d="
M1379.745361,698.993408 
	C1383.587646,698.439636 1383.864990,700.449463 1384.020142,703.116272 
	C1385.548218,729.383362 1387.433472,755.631836 1388.728149,781.909729 
	C1390.719971,822.331726 1392.358398,862.771362 1394.074829,903.206543 
	C1394.498657,913.192627 1389.875488,919.213318 1380.086426,921.405823 
	C1373.132568,922.963379 1366.197021,922.809875 1359.526245,919.854736 
	C1355.332764,917.997070 1353.241699,915.154053 1353.250488,910.200989 
	C1353.372314,841.405273 1353.368286,772.609253 1353.243286,703.813599 
	C1353.235840,699.789856 1354.435425,698.744385 1358.288574,698.908569 
	C1365.272217,699.206299 1372.277344,698.992981 1379.745361,698.993408 
z"/>
<path fill="#E9A9FC" opacity="1.000000" stroke="none" 
	d="
M1347.757446,618.510620 
	C1355.441772,615.960022 1362.949585,615.993530 1370.177002,618.148621 
	C1380.657959,621.273865 1381.002441,621.732300 1381.113403,632.715210 
	C1381.201172,641.407288 1375.023926,647.354919 1366.309448,647.431519 
	C1358.981445,647.495972 1352.204346,645.462036 1346.153564,641.315674 
	C1336.125366,634.443726 1336.695190,624.755859 1347.757446,618.510620 
z"/>
<path fill="#FE0230" opacity="1.000000" stroke="none" 
	d="
M675.282959,745.129456 
	C686.445435,742.016174 697.405151,741.914185 708.386963,743.133484 
	C721.721619,744.614014 729.314331,753.503723 729.891541,768.141907 
	C730.367859,780.221680 727.176392,791.555359 722.171753,802.392395 
	C705.333496,838.853882 679.850769,867.091187 643.182068,884.424866 
	C631.645020,889.878540 619.364319,892.762817 606.561096,893.331238 
	C586.190857,894.235657 570.535889,878.991699 571.109436,858.668762 
	C571.327881,850.929382 572.818054,843.337097 576.110535,836.398193 
	C596.795288,792.804932 628.850220,761.410706 675.282959,745.129456 
z"/>
</svg>